<svg width="76" height="76" viewBox="0 0 76 76" fill="none" xmlns="http://www.w3.org/2000/svg">
<path d="M30.6204 49.0064C32.0708 49.0064 33.2466 47.8306 33.2466 46.3802C33.2466 44.9297 32.0708 43.7539 30.6204 43.7539C29.17 43.7539 27.9941 44.9297 27.9941 46.3802C27.9941 47.8306 29.17 49.0064 30.6204 49.0064Z" stroke="black" stroke-width="2.0625" stroke-miterlimit="10"/>
<path d="M46.3802 49.0064C47.8306 49.0064 49.0064 47.8306 49.0064 46.3802C49.0064 44.9297 47.8306 43.7539 46.3802 43.7539C44.9297 43.7539 43.7539 44.9297 43.7539 46.3802C43.7539 47.8306 44.9297 49.0064 46.3802 49.0064Z" stroke="black" stroke-width="2.0625" stroke-miterlimit="10"/>
<path d="M27.995 46.3759H24.0625V27.9922H47.685V33.2447L50.3113 38.4972L52.9375 39.9684V46.3759H49.005" stroke="black" stroke-width="2.0625" stroke-miterlimit="10"/>
<path d="M43.7511 46.3789H33.2461" stroke="black" stroke-width="2.0625" stroke-miterlimit="10"/>
<path d="M50.3104 38.4986H42.4316V33.2461H47.6841" stroke="black" stroke-width="2.0625" stroke-miterlimit="10"/>
<circle cx="38" cy="38" r="37.5" stroke="#121212" stroke-opacity="0.1"/>
</svg>
