<svg width="76" height="76" viewBox="0 0 76 76" fill="none" xmlns="http://www.w3.org/2000/svg">
<circle cx="38" cy="38" r="37.5" stroke="#121212" stroke-opacity="0.1"/>
<path d="M46.2963 52.9373H30.7037C28.9424 52.9373 27.2532 52.2376 26.0077 50.9922C24.7622 49.7467 24.0625 48.0575 24.0625 46.2961C24.0629 44.6559 24.6702 43.0739 25.7675 41.8548L35.8738 30.6211H41.1262L51.2325 41.8548C52.3298 43.0739 52.9371 44.6559 52.9375 46.2961C52.9375 48.0575 52.2378 49.7467 50.9923 50.9922C49.7468 52.2376 48.0576 52.9373 46.2963 52.9373Z" stroke="black" stroke-width="1.5" stroke-miterlimit="10" stroke-linecap="square"/>
<path d="M43.7511 24.0628L43.2148 26.8128C42.987 27.8934 42.3935 28.8624 41.5343 29.5562C40.6751 30.2501 39.6029 30.6263 38.4986 30.6216C37.3865 30.6238 36.3083 30.2397 35.448 29.5349C34.5878 28.8302 33.999 27.8486 33.7823 26.7578L33.2461 24.0078L43.7511 24.0628Z" stroke="black" stroke-width="1.5" stroke-miterlimit="10" stroke-linecap="square"/>
<path d="M47.6861 26.6875L42.4336 29.3138" stroke="black" stroke-width="1.5" stroke-miterlimit="10" stroke-linecap="square"/>
<path d="M49.0037 30.6211H41.125" stroke="black" stroke-width="1.5" stroke-miterlimit="10" stroke-linecap="square"/>
<path d="M35.8734 46.3795H39.1596C39.6811 46.3795 40.1812 46.1724 40.55 45.8036C40.9187 45.4349 41.1259 44.9348 41.1259 44.4133C41.1277 44.1539 41.0782 43.8967 40.9802 43.6566C40.8822 43.4164 40.7376 43.1981 40.5548 43.014C40.3721 42.83 40.1547 42.6839 39.9153 42.5842C39.6758 42.4846 39.419 42.4333 39.1596 42.4333H37.7846C37.2631 42.4333 36.763 42.2261 36.3943 41.8574C36.0255 41.4886 35.8184 40.9885 35.8184 40.467C35.8183 40.2041 35.8709 39.9439 35.9731 39.7016C36.0753 39.4594 36.2251 39.2402 36.4136 39.0569C36.602 38.8735 36.8253 38.7299 37.0703 38.6344C37.3152 38.5388 37.5768 38.4934 37.8396 38.5008H41.1259" stroke="black" stroke-width="1.5" stroke-miterlimit="10" stroke-linecap="square"/>
<path d="M38.5 37.1953V38.5016" stroke="black" stroke-width="1.5" stroke-miterlimit="10" stroke-linecap="square"/>
<path d="M38.5 46.3789V47.6852" stroke="black" stroke-width="1.5" stroke-miterlimit="10" stroke-linecap="square"/>
</svg>
