<svg width="76" height="76" viewBox="0 0 76 76" fill="none" xmlns="http://www.w3.org/2000/svg">
<circle cx="38" cy="38" r="37.5" stroke="#121212" stroke-opacity="0.1"/>
<path d="M38.5 52.9375C46.4736 52.9375 52.9375 46.4736 52.9375 38.5C52.9375 30.5264 46.4736 24.0625 38.5 24.0625C30.5264 24.0625 24.0625 30.5264 24.0625 38.5C24.0625 46.4736 30.5264 52.9375 38.5 52.9375Z" stroke="black" stroke-width="1.5" stroke-miterlimit="10"/>
<path d="M31.9414 31.9414H42.4327C43.8257 31.9414 45.1617 32.4948 46.1467 33.4798C47.1318 34.4649 47.6852 35.8009 47.6852 37.1939C47.6815 38.5846 47.1265 39.917 46.1419 40.8991C45.1572 41.8812 43.8233 42.4327 42.4327 42.4327H31.9414" stroke="black" stroke-width="1.5" stroke-miterlimit="10"/>
<path d="M37.1802 47.6847L31.9414 42.4322L37.1802 37.1797" stroke="black" stroke-width="1.5" stroke-miterlimit="10"/>
</svg>
